<?xml version="1.0" encoding="utf-8"?>
<!-- Generator: Adobe Illustrator 22.0.1, SVG Export Plug-In . SVG Version: 6.00 Build 0)  -->
<svg version="1.1" id="Layer_1" xmlns="http://www.w3.org/2000/svg" xmlns:xlink="http://www.w3.org/1999/xlink" x="0px" y="0px"
	 viewBox="0 0 499.9 111.9" style="enable-background:new 0 0 499.9 111.9;" xml:space="preserve">
<style type="text/css">
	.st0{clip-path:url(#SVGID_2_);fill:#00A395;}
	.st1{clip-path:url(#SVGID_2_);fill:#005BAB;}
	.st2{clip-path:url(#SVGID_2_);fill:#231815;}
</style>
<g>
	<defs>
		<rect id="SVGID_1_" y="0" width="499.9" height="111.8"/>
	</defs>
	<clipPath id="SVGID_2_">
		<use xlink:href="#SVGID_1_"  style="overflow:visible;"/>
	</clipPath>
	<path class="st0" d="M51,22.5c6.2,0,11.2-5,11.2-11.2C62.2,5,57.2,0,51,0S39.7,5,39.7,11.2C39.7,17.5,44.8,22.5,51,22.5"/>
	<path class="st1" d="M83.7,38.5c0.4-0.5,0.7-1,0.9-1.5c0.3-0.8,0.2-1.3,0-1.5c-0.2-0.3-0.5-0.6-1.4-0.8C78.4,34,67,40.4,58.8,48.5
		l-0.2,0.2c17,27.9,9.6,63.4-7.4,63.2c-8.2-0.1-13.4-7-15.6-16.6c-1-4.2-1.3-10.8-1.1-13.9c0.1-1.9,0.5-9.5,3-18.3
		c-25.2-5.4-43-24.3-35.8-36.4c4.2-7,12.8-8.1,22.3-5.2c4.1,1.3,8.4,3.3,12.6,6l0.5,0.3c-0.3,0.1-0.5,0.2-0.7,0.5
		c-0.1,0.7,0.6,0.8,1.2,1c-0.3,0.3-0.9,0.7-1.2,1c0,0.2,0,0.2,0,0.3c0.2,0.3,0.8,0.3,1.2,0.6c0.3-0.5,1.1-0.3,1.7-0.2
		c0.3-0.3,0.3-0.9,0.7-1.2c0.4,0.3,0.9,0.6,1.3,0.9c-0.1,0.1-0.1,0.3-0.1,0.4c0.4,0.3,0.7,0.4,1.2,0.5c0.6,0.5,1.2,0.9,1.8,1.4
		C43.8,33,43.4,33,43,32.8c-0.2-0.3-0.6-0.5-1-0.6c-0.2,0.2-0.2,0.2-0.3,0.3l-0.4,0c-0.2,0.3-0.5,0.3-0.9,0.3
		c-0.3,0.3-0.5,0.7-0.8,1c-0.2,0-0.2,0-0.4,0c-0.4-0.3-1-0.6-1.2-1.1c0-0.2,0-0.3,0.1-0.5c-0.8-0.2-1.3-0.1-1.8-0.8
		c-0.4,0.2-0.1,0.5-0.1,0.7c0.6,0.7,0.3,1.5,0.4,2.1c0.7,1,1.9,0.6,3,0.4c0.2,0.2,0.4,0.2,0.6,0.2c0.1-0.7,0.4-1.2,1.4-1
		c0.2-0.2,0.2-0.2,0.3-0.3c0.4-0.2,0.6,0.2,0.9,0.1c0.3,0.7-0.3,1.2-1,1.2c-0.2,0.2-0.2,0.3-0.1,0.5c0.6,0.5,0.7,1.1,0.7,1.8
		c-0.4,0,0.1,0.5-0.3,0.5c0,0.2,0,0.3,0.1,0.5c-0.2,0.2-0.3,0.3-0.5,0.5c-0.4,0-0.7,0.2-1.1,0.3c0,0.2,0,0.2,0,0.3
		c0.2,0.3,0.8,0.3,1,0.6c-0.2,0.2-0.2,0.3-0.1,0.5c-0.7,0-1.4,0.5-2.2,0.4c0-0.3-0.3-0.7,0.1-0.8l-0.2-0.2c0.3-0.3-0.1-0.8,0-1.3
		c0.5-0.3,0.5-0.8,1-1.2c0-0.2,0-0.2,0-0.3c-0.4-0.5-1.2-0.5-1.9-0.5c-0.7,0.5-1.2,1-1.9,1.5c0,0.2,0,0.2,0,0.3
		c0.2,0.2,0.2,0.3,0.6,0.3c0.3-0.8,1-0.7,1.8-0.5c0.2,0.5-0.3,0.8-0.4,1.2c-0.6,0-1.1,0-1.5,0.4c-0.2,0-0.4,0-0.6,0
		c-0.4,0.2-0.3,0.5-0.5,0.7c0,0.3-0.1,0.7-0.3,1c-0.4,0-0.6-0.2-0.8-0.3c0.1-1-0.4-2-1.5-2.1c-1,0.7,0.2,1.6,0.8,2.1
		c0,0.3,0.1,0.5,0.3,0.8c0.2,0.2-0.2,0.3,0,0.5c0,0,0,0,0,0c-0.9-0.7-1.8-1.3-2.7-1.9l0,0c0-0.2,0-0.3-0.2-0.3
		c0.2,0,0.2-0.2,0.1-0.3c-0.2-0.5-0.6-0.5-1-0.8c-0.7,0.2,0,1.1-0.4,0.6c-3.9-2.4-7.5-4-10-4.3c-0.6-0.1-1.2-0.1-1.7,0
		c-0.9,0.1-1.2,0.5-1.3,0.7c-0.2,0.3-0.3,0.7,0,1.6c1.8,4.5,13.1,11.1,24.2,14.2l0.3,0.1c15.8-28.6,50.4-40,58.7-25.2
		c4,7.1,0.6,15.1-6.6,21.8c-3.2,2.9-7.1,5.6-11.5,7.9l-0.1-0.2c0.1-0.3,0.3-0.5,0.2-0.8c-0.5-0.4-1,0.2-1.4,0.6
		c-0.1-0.5-0.2-1.1-0.3-1.5c-0.2-0.1-0.2-0.1-0.3-0.1c-0.4,0-0.6,0.5-1.1,0.7c0.3,0.5-0.2,1.1-0.6,1.5c0.1,0.4,0.7,0.7,0.8,1.2
		c-0.5,0.2-1,0.5-1.4,0.7c-0.1-0.2-0.2-0.2-0.3-0.3c-0.4,0.2-0.7,0.4-1,0.9c-0.7,0.3-1.4,0.6-2.1,0.9c0.2-0.3,0.5-0.6,0.8-0.9
		c0.4,0,0.7-0.3,1-0.6c-0.1-0.2-0.1-0.2-0.1-0.5c0.1-0.2,0.1-0.2,0.2-0.3c-0.2-0.3-0.1-0.6,0.1-0.9c-0.1-0.5-0.4-0.7-0.5-1.2
		c0.1-0.2,0.1-0.2,0.2-0.3c0.5-0.2,1-0.6,1.6-0.6c0.2,0.1,0.3,0.1,0.4,0.4c0.5-0.6,0.7-1.1,1.5-1.2c0-0.4-0.4-0.3-0.5-0.4
		c-0.9,0.2-1.5-0.4-2.1-0.6c-1.2,0.1-1.5,1.4-1.8,2.5c-0.2,0.1-0.3,0.3-0.4,0.4c0.5,0.4,0.8,0.9,0.3,1.7c0.1,0.2,0.1,0.2,0.1,0.5
		c0,0.4-0.4,0.4-0.6,0.8c-0.7-0.1-0.9-0.8-0.6-1.4c-0.1-0.2-0.2-0.3-0.4-0.4c-0.7,0.3-1.3,0.1-2-0.2c0.2-0.3-0.5-0.2-0.3-0.5
		c-0.2-0.1-0.3-0.1-0.5-0.2c-0.1-0.2-0.1-0.5-0.2-0.7c0.2-0.3,0.2-0.7,0.2-1.1C70.8,54,70.8,54,70.7,54c-0.4,0-0.6,0.5-1,0.6
		c-0.1-0.2-0.2-0.3-0.4-0.4c0.3-0.7,0.2-1.5,0.7-2.1c0.3,0.1,0.7,0.1,0.7,0.5l0.2-0.1c0.1,0.5,0.8,0.3,1.2,0.7
		c0.1,0.6,0.5,0.8,0.6,1.4c0.2,0.1,0.2,0.1,0.3,0.1c0.6-0.1,1-0.8,1.3-1.5c-0.1-0.8-0.3-1.5-0.5-2.4c-0.2-0.1-0.2-0.1-0.3-0.1
		c-0.2,0.1-0.4,0-0.6,0.4c0.6,0.6,0.1,1.2-0.4,1.8c-0.5,0-0.6-0.6-0.8-0.9c0.3-0.5,0.5-1,0.4-1.4c0.1-0.2,0.2-0.3,0.3-0.5
		c0-0.4-0.3-0.5-0.4-0.7c-0.3-0.1-0.5-0.4-0.8-0.7c0.2-0.3,0.4-0.4,0.6-0.5c0.8,0.5,1.9,0.6,2.6-0.3c-0.1-1.2-1.5-0.6-2.3-0.3
		c-0.3-0.1-0.5-0.2-0.9-0.1c-0.2,0.1-0.2-0.3-0.4-0.2c0,0,0,0,0,0c1.1-0.5,2-1,2.9-1.5l0,0.1c0.5-0.2,0.7,0,0.8-0.2
		c-0.1,0.2,0.2,0.3,0.3,0.3c0.5,0,0.5-0.1,1-0.3c0.2-0.7,1-0.3,0.1-0.9C80.1,42.2,82.1,40.5,83.7,38.5 M40.8,36.4c0,0.2,0,0.2,0,0.4
		c0.3,0.2,0.3,0.2,0.6,0.4c0.3,0,0.3,0,0.5,0c0.5-0.2,0.4-1.1-0.1-1.1c-0.3,0-0.3-0.2-0.5-0.2L40.8,36.4z M38.8,31.9
		c0.3,0.5,0.9,0.7,1.5,0.2c0-0.3-0.3-0.2-0.3-0.5C39.6,31.7,39,31.4,38.8,31.9 M35.6,38.6c-0.3-0.7,0.1-1.2,0-1.8
		c-0.2-0.3-0.6-0.3-0.9,0l-0.3,0.3c0.1,0.7,0.5,1.1,0.9,1.6C35.4,38.7,35.6,38.7,35.6,38.6 M34.7,28.7c0.4,0.3,0.9,0,1.3-0.4
		c-0.2-0.2-0.6-0.5-0.8-0.6l-0.4,0C34.5,28,34.1,28.3,34.7,28.7 M34.3,32.6c0,0.2,0.3,0.2,0.5,0.2c0.9-0.6,1-1.5-0.2-1.9
		C33.7,31.1,33.8,32,34.3,32.6 M33.1,34c-0.2,0-0.2,0-0.4,0c-0.5,0.3-0.6,1-1.2,1.3c-0.6,0-0.7,0.3-1,0.7c0,0.2,0,0.3,0.2,0.3
		c1,0.3,2.1,0.3,3,0.3c1.1-0.5,0.6-1.5,0.1-2.3C33.6,34.1,33.4,34,33.1,34 M53,64.9l-0.1-0.3c-0.8,0-1.7,0-2.5,0
		c-2.2,7.6-2.3,14.1-2.4,16c-0.1,3.4,0.3,8.4,1.2,10.8c0.2,0.6,0.5,1.1,0.8,1.5c0.5,0.7,1,0.8,1.3,0.8c0.3,0,0.8-0.1,1.4-0.8
		C55.7,89,55.8,76,53,64.9 M44.4,35.3c-0.2-0.2-0.4-0.2-0.6-0.2c-0.2,0.2-0.2,0.3-0.1,0.5c0.2,0,0.4,0,0.6,0
		C44.2,35.4,44.4,35.4,44.4,35.3 M38.4,40.8c-0.9-0.3-0.9,0.6-0.8,1.1c0.3,0,0.9,0,1.2-0.3C38.7,41.3,38.7,41,38.4,40.8 M41.5,41.8
		c-0.7,0-0.9,0.7-1.4,0.9c-0.1,0.7,0.6,0.8,1.2,0.5C41.7,42.8,42.1,42.2,41.5,41.8 M42.4,44.1c-0.2,0.1-0.3,0.3-0.3,0.6
		c0.1,0.1,0.2,0.3,0.5,0.2c0.1,0,0.1,0,0.3,0C43.1,44.5,43,44,42.4,44.1 M44.5,43.4c0.4-0.2,0.7-0.2,1.1-0.5c-0.2-0.3-0.3-0.8-0.7-1
		c-0.2,0-0.2,0-0.4,0c-0.3,0.5-0.7,0.8-0.4,1.3C44.3,43.2,44.5,43.2,44.5,43.4 M43.3,40.9c-0.2,0.2-0.2,0.3-0.1,0.5
		c0.2,0,0.4,0,0.6,0c0-0.2,0-0.2,0-0.3C43.7,40.9,43.5,40.9,43.3,40.9 M45.1,39.2c0.2-0.3-0.4-0.7-0.5-1c-0.6,0-1.1-0.1-1.2,0.5
		c-0.3,0.3-0.1,0.8,0.3,1C44.3,39.8,44.8,39.7,45.1,39.2 M49,37.6c-0.4,0.2-0.3,0.5-0.3,0.8c0.2,0.2,0.4,0.2,0.6,0.2
		c0.7,0,0.5-0.7,0.1-1L49,37.6z M46.9,37.6c-0.2,0-0.4,0-0.6,0c-0.1,0.8,0.5,1.1,1.1,1.5c0.2,0,0.2,0,0.4,0
		C47.9,38.4,47.3,38.1,46.9,37.6 M38.8,29.5c0.2,0,0.3-0.2,0.4-0.2c-0.4-0.3-0.7-0.5-1.1-0.8c0,0.2,0,0.2,0.1,0.5
		C38.5,29.2,38.5,29.2,38.8,29.5 M46,35.1c-0.1,0.5-0.3,0.8-0.4,1.2c0.2,0.3,0.4,0.5,0.8,0.6c0.6,0,1.1-0.3,1.4-0.6
		c-0.4-0.4-0.8-0.8-1.3-1.1C46.4,35.1,46.2,35.1,46,35.1 M38.5,44.8c-0.2,0-0.2-0.2-0.2-0.3c-0.2,0-0.6,0-0.8-0.3
		c0-0.2,0-0.3,0.1-0.5c-0.8-0.3-0.6-0.8-0.7-1.5c-0.2-0.2-0.2-0.2-0.4-0.3c-0.2,0-0.4,0-0.4,0.2c0,0.3,0.1,0.5,0.1,0.8
		c-0.2,0.1-0.4,0.3-0.6,0.4c0.7,0.6,1.5,1.2,2.3,1.8C38.1,45,38.3,44.9,38.5,44.8 M41.5,46.7c0-0.2-0.2-0.3-0.2-0.5
		c0-0.2,0-0.2,0-0.3c-0.6-0.3-1.6-0.6-2.1-0.1c0,0.1,0,0.3,0.1,0.5c0.3,0.3,0.6,0.6,1,0.9C40.7,47.1,41.1,46.9,41.5,46.7 M73.3,55.1
		c-0.2-0.1-0.2-0.1-0.5-0.2c-0.4,0.2-0.4,0.2-0.7,0.3c-0.1,0.3-0.1,0.3-0.3,0.5c0,0.6,0.9,1,1.2,0.5c0.1-0.3,0.4-0.2,0.5-0.4
		C73.4,55.5,73.4,55.5,73.3,55.1 M78.1,55.7c-0.6,0.1-1.1,0.5-0.9,1.2c0.2,0.1,0.4-0.2,0.6-0.1C77.9,56.6,78.4,56.2,78.1,55.7
		 M73.7,49.8c0.7,0.1,1,0.6,1.6,0.8c0.4,0,0.6-0.4,0.4-0.8c-0.1-0.2-0.1-0.2-0.1-0.5c-0.6-0.2-1.3-0.1-1.9,0
		C73.6,49.6,73.6,49.8,73.7,49.8 M82.9,53.7c-0.5,0.2-0.4,0.8-0.3,1.3c0.2-0.1,0.7-0.3,1-0.4c0.1-0.2,0.1-0.2,0.2-0.3
		C83.6,53.8,83.5,53.3,82.9,53.7 M79.6,51.5c-0.2-0.1-0.3,0.1-0.4,0.3c0.2,1.1,0.8,1.6,1.8,0.7C81.2,51.6,80.4,51.3,79.6,51.5
		 M79,49.7c0.1-0.2,0.1-0.2,0.2-0.3c-0.1-0.6-0.6-1-0.6-1.7c0.3-0.5,0-0.8-0.1-1.2c-0.2-0.1-0.3-0.1-0.4,0c-0.7,0.7-1.2,1.7-1.7,2.5
		c0,1.2,1.1,1.2,2,1.2C78.6,50.2,78.8,50.1,79,49.7 M72.5,59.1c0.2-0.1,0.3-0.3,0.4-0.4c-0.1-0.2-0.2-0.3-0.4-0.4
		c-0.1,0.2-0.2,0.3-0.3,0.5C72.4,58.8,72.4,59,72.5,59.1 M69.6,51.3c-0.1-0.4,0.2-1,0.3-1.4c0.6,0.2,1.5,0.6,0.7,1.4
		C70.2,51.6,69.9,51.4,69.6,51.3 M68.1,53.5c0.3-0.7-0.2-1.1-0.1-1.6c-0.5-0.4-1,0.2-1,0.8C67.1,53.2,67.4,53.8,68.1,53.5
		 M65.6,53.2c0-0.3-0.1-0.5-0.4-0.5c-0.2,0.1-0.4,0-0.4,0.4c0,0.1-0.1,0.1-0.1,0.2C64.9,53.6,65.4,53.8,65.6,53.2 M65.3,55.4
		c0,0.4-0.2,0.7,0,1.2c0.4,0,0.9,0.1,1.2-0.1l0.2-0.3c-0.3-0.5-0.4-1-1-1C65.5,55.3,65.4,55.4,65.3,55.4 M68,55.5
		c-0.1-0.2-0.2-0.3-0.4-0.4c-0.1,0.2-0.2,0.3-0.3,0.5c0.2,0.1,0.2,0.1,0.3,0.1C67.8,55.8,67.9,55.6,68,55.5 M68.7,57.9
		c0.2,0.3,0.8-0.1,1.1,0c0.3-0.5,0.7-0.9,0.1-1.3c-0.1-0.5-0.7-0.5-1-0.2C68.5,56.8,68.4,57.4,68.7,57.9 M68.3,62
		c0-0.4-0.3-0.5-0.6-0.6c-0.2,0.1-0.3,0.3-0.4,0.4c-0.3,0.7,0.4,0.7,0.8,0.5C68.2,62.2,68.2,62.2,68.3,62 M69.2,60.1
		c0.1-0.2,0.2-0.3,0.3-0.5c-0.7-0.5-1.3-0.1-1.8,0.3l-0.2,0.3C68,60.7,68.6,60.3,69.2,60.1 M81.3,56.5c0.2,0.1,0.2,0.1,0.5,0.2
		c-0.4,0.2-0.8,0.4-1.2,0.6c0-0.2-0.1-0.3,0-0.5C80.9,56.6,80.9,56.6,81.3,56.5 M71.9,60.6c-0.4-0.4-0.6-0.6-0.8-0.9
		c-0.4,0-0.6,0.1-1,0.4c-0.3,0.6-0.3,1.1-0.1,1.5c0.5-0.2,1.1-0.4,1.6-0.6C71.7,60.9,71.8,60.8,71.9,60.6 M66.8,49.4
		c0.1-0.2,0.2-0.1,0.4,0c0.1-0.2,0.3-0.5,0.6-0.5c0.2,0.1,0.3,0.1,0.4,0.4c0.6-0.5,1-0.2,1.6,0.1c0.2-0.1,0.2-0.1,0.5-0.2
		c0.1-0.2,0.2-0.3,0-0.4c-0.3-0.1-0.5-0.2-0.8-0.3c0-0.2-0.1-0.5-0.1-0.7c-0.9,0.4-1.8,0.8-2.7,1.1C66.8,49,66.8,49.2,66.8,49.4
		 M63.7,51.2c0.2,0.1,0.4,0,0.5,0c0.2,0.1,0.2,0.1,0.3,0.1c0.6-0.4,1.3-1.1,1.1-1.8c-0.1,0-0.3-0.1-0.4-0.2
		c-0.4,0.1-0.8,0.3-1.2,0.4C63.7,50.3,63.7,50.7,63.7,51.2"/>
	<path class="st2" d="M294,61.8h7.9v6.6h6.7V42.3h-9.8v1.3h1.1c1,0,1.9,0.8,2,1.8v3.7H294V44h-9.2v1.3h0.5c1.1,0,2,0.9,2,2l0,0v4.1
		h-10.1V44h-9.1v1.3h0.4c1.1,0,2,0.9,2,2l0,0v14.5c0,2.9,2.3,5.2,5.2,5.2H294V61.8z M294,53.3h7.9v4.3H294V53.3z M287.3,62.8h-10.1
		v-7.2h10.1V62.8z"/>
	<path class="st2" d="M402.2,82.4V45.5h-33.6v4.2h26.9v32.7h-5.3V63.8H381v1.3h0.5c1,0,1.9,0.8,2,1.8v15.5h-4.6V63.8h-9.1v1.3h0.5
		c1.1,0,2,0.9,2,2l0,0v15.4h-7.8v4.2H408v-4.2H402.2z"/>
	<path class="st2" d="M154.7,43.6h1.3c1.1,0,1.9,0.9,1.9,2l0,0v10.9h-9.1v3.9h9.1v31.4h6.7V42.3h-9.8V43.6z"/>
	<path class="st2" d="M347.2,42.3v1.3h1.2c1.1,0,2,0.9,2,2v0v46.3h6.7V42.3H347.2z"/>
	<path class="st2" d="M411.3,65.2v4.2H423v6.1h-6.6v4.2h26.4v12.1h6.7V75.5h-6.4v-6.1h11.7v-4.2H411.3z M436.4,75.5h-6.7v-6.1h6.7
		V75.5z"/>
	<path class="st2" d="M433.1,63.2c7.2,0,13.1-4.9,13.1-11c0-6.1-5.9-11-13.1-11c-7.2,0-13.1,5-13.1,11
		C420,58.2,425.9,63.2,433.1,63.2 M433.1,45.1c3.6,0,6.4,3.1,6.4,7s-2.9,7-6.4,7c-3.6,0-6.4-3.1-6.4-7S429.5,45.1,433.1,45.1"/>
	<polygon class="st2" points="225.9,79.2 251.4,79.2 251.4,91.4 258.1,91.4 258.1,75 225.9,75 	"/>
	<rect x="220.4" y="67.1" class="st2" width="43.5" height="4.2"/>
	<path class="st2" d="M193.3,63c7.1,0,12.8-4.9,12.8-10.8c0-6-5.8-10.8-12.8-10.8c-7.1,0-12.9,4.9-12.9,10.8
		C180.5,58.1,186.2,63,193.3,63 M193.3,44.9c3.4,0,6.2,3.3,6.2,7.3s-2.8,7.3-6.2,7.3c-3.4,0-6.2-3.3-6.2-7.3S189.9,44.9,193.3,44.9"
		/>
	<path class="st2" d="M171.4,69.5h18.4v3.5h-13v4.2H202v3.1h-25.7v1.3h0.2c1.1,0,2,0.9,2,2l0,0v3c0,2.9,2.3,5.2,5.2,5.2h25.4v-4.2
		h-24v-3.2h23.6V72.9h-12.1v-3.5H215v-4.3h-43.5V69.5z"/>
	<path class="st2" d="M286,82.9h22.7V70.7h-30.8v4.2H302v3.8h-24.8V80h0.2c1,0,1.9,0.8,2,1.8v3.9c0,2.9,2.3,5.2,5.2,5.2H309v-4.2
		H286V82.9z"/>
	<path class="st2" d="M225.6,46.6L225.6,46.6v11.5c0,2.9,2.3,5.2,5.2,5.2h28.4v-3.9h-26.9v-4.2h26.1v-3.9h-26.1v-4.2h26.9v-3.9h-36
		v1.3h0.4C224.7,44.6,225.6,45.5,225.6,46.6"/>
	<path class="st2" d="M141.4,44v9.8c0,10.9,5.9,17,12.4,19.3l-2.5,3c-5.3-1.4-11-5.2-13.5-9.8c-2.4,4.6-8.1,8.4-13.5,9.8l-2.5-3
		c6.5-2.3,12.4-8.4,12.4-19.3v-6.5v0c0-1.1-0.9-2-2-2h-0.6V44H141.4z"/>
	<path class="st2" d="M333.9,44v9.8c0,10.9,5.9,17,12.4,19.3l-2.5,3c-5.3-1.4-11-5.2-13.5-9.8c-2.4,4.6-8.1,8.4-13.5,9.8l-2.5-3
		c6.5-2.3,12.4-8.4,12.4-19.3v-6.5l0,0c0-1.1-0.9-2-2-2h-0.6V44H333.9z"/>
	<path class="st2" d="M490,42.3v1.3h1.2c1.1,0,2,0.9,2,2l0,0v8.7h-8.6v4.2h8.6v10.8h6.7v-27H490z"/>
	<path class="st2" d="M485.5,70.2c-7.5,0-13.6,5.1-13.6,11.4c0,6.3,6.1,11.4,13.6,11.4c7.5,0,13.6-5.1,13.6-11.4
		C499.1,75.3,493,70.2,485.5,70.2 M485.5,89.1c-3.8,0-6.8-3.4-6.8-7.5c0-4.2,3.1-7.5,6.8-7.5c3.8,0,6.8,3.4,6.8,7.5
		C492.3,85.7,489.3,89.1,485.5,89.1"/>
	<path class="st2" d="M488.2,64.2c-0.7-0.1-11.2-2.7-11.5-12.7h9.9v-4.2h-10.1v-5.4h-9.1v1.3h0.5c1,0,1.9,0.8,2,1.8v2.3h-10.1v4.2
		h9.9c-0.3,9.9-10.6,12.6-11.5,12.7l2.6,3.3c4-0.8,8.5-2.7,12.3-7.4c3.8,4.8,8.3,6.7,12.4,7.4L488.2,64.2z"/>
</g>
</svg>
